<svg width="15" height="17" viewBox="0 0 15 17" fill="none" xmlns="http://www.w3.org/2000/svg">
<g clip-path="url(#clip0_1_378)">
<path d="M13.0014 11.2674C13.0014 11.0293 12.9181 10.8269 12.7514 10.6602L10.8943 8.80308C10.7276 8.63642 10.5252 8.55308 10.2871 8.55308C10.0371 8.55308 9.82286 8.64832 9.64429 8.8388C9.66214 8.85665 9.71869 8.91171 9.81393 9.00398C9.90917 9.09624 9.97316 9.16023 10.0059 9.19594C10.0386 9.23165 10.0833 9.2882 10.1398 9.36558C10.1964 9.44296 10.2351 9.51886 10.2559 9.59326C10.2767 9.66767 10.2871 9.74951 10.2871 9.8388C10.2871 10.0769 10.2038 10.2793 10.0371 10.4459C9.87048 10.6126 9.6681 10.6959 9.43 10.6959C9.34072 10.6959 9.25887 10.6855 9.18447 10.6647C9.11006 10.6439 9.03417 10.6052 8.95679 10.5486C8.87941 10.4921 8.82286 10.4474 8.78714 10.4147C8.75143 10.382 8.68744 10.318 8.59518 10.2227C8.50292 10.1275 8.44786 10.0709 8.43 10.0531C8.23357 10.2376 8.13536 10.4549 8.13536 10.7049C8.13536 10.943 8.21869 11.1453 8.38536 11.312L10.2246 13.1602C10.3854 13.3209 10.5877 13.4013 10.8318 13.4013C11.0699 13.4013 11.2723 13.3239 11.4389 13.1692L12.7514 11.8656C12.9181 11.6989 13.0014 11.4995 13.0014 11.2674ZM6.72464 4.97273C6.72464 4.73463 6.64131 4.53225 6.47464 4.36558L4.63536 2.51737C4.46869 2.3507 4.26631 2.26737 4.02822 2.26737C3.79607 2.26737 3.59369 2.34773 3.42107 2.50844L2.10857 3.81201C1.94191 3.97868 1.85857 4.17808 1.85857 4.41023C1.85857 4.64832 1.94191 4.8507 2.10857 5.01737L3.96572 6.87451C4.12643 7.03523 4.32881 7.11558 4.57286 7.11558C4.82286 7.11558 5.03714 7.02332 5.21572 6.8388C5.19786 6.82094 5.14131 6.76588 5.04607 6.67362C4.95083 6.58136 4.88685 6.51737 4.85411 6.48165C4.82137 6.44594 4.77673 6.38939 4.72018 6.31201C4.66363 6.23463 4.62494 6.15874 4.60411 6.08433C4.58328 6.00993 4.57286 5.92808 4.57286 5.8388C4.57286 5.6007 4.65619 5.39832 4.82286 5.23165C4.98953 5.06499 5.19191 4.98165 5.43 4.98165C5.51929 4.98165 5.60113 4.99207 5.67554 5.0129C5.74994 5.03374 5.82583 5.07243 5.90322 5.12898C5.9806 5.18552 6.03714 5.23017 6.07286 5.2629C6.10857 5.29564 6.17256 5.35963 6.26482 5.45487C6.35709 5.55011 6.41214 5.60665 6.43 5.62451C6.62643 5.43999 6.72464 5.22273 6.72464 4.97273ZM13.9657 9.44594C14.4657 9.94594 14.7157 10.5531 14.7157 11.2674C14.7157 11.9817 14.4627 12.5858 13.9568 13.0799L12.6443 14.3834C12.1502 14.8775 11.5461 15.1245 10.8318 15.1245C10.1115 15.1245 9.50441 14.8715 9.01036 14.3656L7.17107 12.5174C6.67703 12.0233 6.43 11.4192 6.43 10.7049C6.43 9.97273 6.69191 9.3507 7.21572 8.8388L6.43 8.05308C5.9181 8.57689 5.29905 8.8388 4.57286 8.8388C3.85857 8.8388 3.25143 8.5888 2.75143 8.0888L0.894287 6.23165C0.394287 5.73165 0.144287 5.12451 0.144287 4.41023C0.144287 3.69594 0.397263 3.09177 0.903216 2.59773L2.21572 1.29415C2.70976 0.800106 3.31393 0.553082 4.02822 0.553082C4.74845 0.553082 5.3556 0.806059 5.84964 1.31201L7.68893 3.16023C8.18298 3.65427 8.43 4.25844 8.43 4.97273C8.43 5.70487 8.1681 6.32689 7.64429 6.8388L8.43 7.62451C8.94191 7.1007 9.56095 6.8388 10.2871 6.8388C11.0014 6.8388 11.6086 7.0888 12.1086 7.5888L13.9657 9.44594Z" fill="#71B100"/>
</g>
<defs>
<clipPath id="clip0_1_378">
<rect width="14.86" height="16" fill="white" transform="matrix(1 0 0 -1 0 16.4102)"/>
</clipPath>
</defs>
</svg>
