<svg width="12" height="32" viewBox="0 0 12 32" fill="none" xmlns="http://www.w3.org/2000/svg">
<g clip-path="url(#clip0_1_148)">
<path d="M11.1379 9.32288C11.2532 9.4382 11.3109 9.57083 11.3109 9.72076C11.3109 9.87068 11.2532 10.0033 11.1379 10.1186L4.33934 16.9172L11.1379 23.7157C11.2532 23.8311 11.3109 23.9637 11.3109 24.1136C11.3109 24.2635 11.2532 24.3962 11.1379 24.5115L10.2729 25.3764C10.1576 25.4918 10.025 25.5494 9.87505 25.5494C9.72513 25.5494 9.5925 25.4918 9.47717 25.3764L1.41579 17.3151C1.30046 17.1997 1.2428 17.0671 1.2428 16.9172C1.2428 16.7673 1.30046 16.6346 1.41579 16.5193L9.47717 8.45792C9.5925 8.34259 9.72513 8.28493 9.87505 8.28493C10.025 8.28493 10.1576 8.34259 10.2729 8.45792L11.1379 9.32288Z" fill="#222222"/>
</g>
<defs>
<clipPath id="clip0_1_148">
<rect width="11.08" height="31" fill="white" transform="matrix(1 0 0 -1 0.460022 31.3101)"/>
</clipPath>
</defs>
</svg>
