<svg width="17" height="18" viewBox="0 0 17 18" fill="none" xmlns="http://www.w3.org/2000/svg">
<g clip-path="url(#clip0_1_127)">
<path d="M11.5036 10.0848L14.5773 7.10155L10.3384 6.47879L8.44 2.64173L6.54156 6.47879L2.30272 7.10155L5.37638 10.0848L4.64312 14.3136L8.44 12.3147L12.2268 14.3136L11.5036 10.0848ZM16.7971 6.49888C16.7971 6.6462 16.7101 6.80691 16.536 6.98102L12.8898 10.5368L13.7536 15.5591C13.7603 15.606 13.7637 15.673 13.7637 15.76C13.7637 16.0949 13.6264 16.2623 13.3518 16.2623C13.2246 16.2623 13.0907 16.2221 12.95 16.1417L8.44 13.7712L3.92995 16.1417C3.78263 16.2221 3.6487 16.2623 3.52817 16.2623C3.38754 16.2623 3.28207 16.2137 3.21176 16.1166C3.14145 16.0195 3.10629 15.9007 3.10629 15.76C3.10629 15.7199 3.11299 15.6529 3.12638 15.5591L3.99022 10.5368L0.333971 6.98102C0.166561 6.80021 0.0828552 6.6395 0.0828552 6.49888C0.0828552 6.25111 0.270355 6.09709 0.645355 6.03682L5.68777 5.30356L7.94781 0.73325C8.07504 0.458697 8.23911 0.32142 8.44 0.32142C8.64089 0.32142 8.80495 0.458697 8.93219 0.73325L11.1922 5.30356L16.2346 6.03682C16.6096 6.09709 16.7971 6.25111 16.7971 6.49888Z" fill="white"/>
</g>
<defs>
<clipPath id="clip0_1_127">
<rect width="16.72" height="18" fill="white" transform="matrix(1 0 0 -1 0.0800018 18)"/>
</clipPath>
</defs>
</svg>
