<svg width="13" height="17" viewBox="0 0 13 17" fill="none" xmlns="http://www.w3.org/2000/svg">
<g clip-path="url(#clip0_1_362)">
<path d="M12.5757 11.4817C12.5757 11.6424 12.5459 11.8522 12.4864 12.1111C12.4269 12.37 12.3644 12.5739 12.2989 12.7227C12.1739 13.0203 11.8108 13.3358 11.2096 13.6692C10.6501 13.9727 10.0965 14.1245 9.54892 14.1245C9.3882 14.1245 9.23046 14.1141 9.0757 14.0933C8.92094 14.0724 8.74981 14.0352 8.56231 13.9817C8.37481 13.9281 8.23493 13.8849 8.14267 13.8522C8.0504 13.8195 7.88523 13.7584 7.64713 13.6692C7.40903 13.5799 7.2632 13.5263 7.20963 13.5084C6.6263 13.3001 6.10546 13.0531 5.64713 12.7674C4.89118 12.2971 4.10546 11.6543 3.28999 10.8388C2.47451 10.0233 1.83165 9.23761 1.36142 8.48165C1.0757 8.02332 0.828677 7.50249 0.620344 6.91915C0.602487 6.86558 0.548915 6.71975 0.45963 6.48165C0.370344 6.24356 0.309332 6.07838 0.276594 5.98612C0.243856 5.89386 0.200701 5.75398 0.14713 5.56648C0.0935582 5.37898 0.0563558 5.20784 0.0355225 5.05308C0.0146891 4.89832 0.00427246 4.74058 0.00427246 4.57987C0.00427246 4.03225 0.156058 3.47868 0.45963 2.91915C0.792963 2.31796 1.10844 1.95487 1.40606 1.82987C1.55487 1.76439 1.75874 1.70189 2.01767 1.64237C2.27659 1.58284 2.48642 1.55308 2.64713 1.55308C2.73046 1.55308 2.79296 1.56201 2.83463 1.57987C2.94177 1.61558 3.09951 1.84177 3.30784 2.25844C3.37332 2.37154 3.46261 2.53225 3.5757 2.74058C3.6888 2.94892 3.79296 3.1379 3.8882 3.30755C3.98344 3.47719 4.0757 3.63642 4.16499 3.78523C4.18284 3.80904 4.23493 3.88344 4.32124 4.00844C4.40755 4.13344 4.47153 4.23909 4.5132 4.3254C4.55487 4.41171 4.5757 4.49654 4.5757 4.57987C4.5757 4.69892 4.49088 4.84773 4.32124 5.0263C4.15159 5.20487 3.96707 5.36856 3.76767 5.51737C3.56826 5.66618 3.38374 5.82392 3.21409 5.99058C3.04445 6.15725 2.95963 6.29415 2.95963 6.4013C2.95963 6.45487 2.97451 6.52183 3.00427 6.60219C3.03403 6.68255 3.05933 6.74356 3.08017 6.78523C3.101 6.82689 3.14267 6.89832 3.20517 6.99951C3.26767 7.1007 3.30189 7.15725 3.30784 7.16915C3.76023 7.98463 4.27808 8.68404 4.86142 9.26737C5.44475 9.8507 6.14415 10.3686 6.95963 10.8209C6.97153 10.8269 7.02808 10.8611 7.12927 10.9236C7.23046 10.9861 7.30189 11.0278 7.34356 11.0486C7.38523 11.0695 7.44624 11.0947 7.52659 11.1245C7.60695 11.1543 7.67392 11.1692 7.72749 11.1692C7.83463 11.1692 7.97153 11.0843 8.1382 10.9147C8.30487 10.745 8.46261 10.5605 8.61142 10.3611C8.76023 10.1617 8.92392 9.97719 9.10249 9.80755C9.28106 9.6379 9.42987 9.55308 9.54892 9.55308C9.63225 9.55308 9.71707 9.57392 9.80338 9.61558C9.88969 9.65725 9.99534 9.72124 10.1203 9.80755C10.2453 9.89386 10.3197 9.94594 10.3436 9.9638C10.4924 10.0531 10.6516 10.1453 10.8212 10.2406C10.9909 10.3358 11.1799 10.44 11.3882 10.5531C11.5965 10.6662 11.7572 10.7555 11.8703 10.8209C12.287 11.0293 12.5132 11.187 12.5489 11.2942C12.5668 11.3358 12.5757 11.3983 12.5757 11.4817Z" fill="#71B100"/>
</g>
<defs>
<clipPath id="clip0_1_362">
<rect width="12.58" height="16" fill="white" transform="matrix(1 0 0 -1 0 16.4102)"/>
</clipPath>
</defs>
</svg>
