<svg width="17" height="18" viewBox="0 0 17 18" fill="none" xmlns="http://www.w3.org/2000/svg">
<g clip-path="url(#clip0_1_123)">
<path d="M12.935 10.2857C13.8256 10.2857 14.584 10.5988 15.2101 11.2249C15.8362 11.851 16.1493 12.6094 16.1493 13.5C16.1493 14.3906 15.8362 15.149 15.2101 15.7751C14.584 16.4012 13.8256 16.7143 12.935 16.7143C12.0444 16.7143 11.286 16.4012 10.6599 15.7751C10.0338 15.149 9.72072 14.3906 9.72072 13.5C9.72072 13.4197 9.72741 13.3058 9.74081 13.1585L6.12474 11.3505C5.50866 11.9263 4.77875 12.2143 3.935 12.2143C3.04438 12.2143 2.28601 11.9012 1.65989 11.2751C1.03378 10.649 0.720718 9.89063 0.720718 9.00001C0.720718 8.10938 1.03378 7.35101 1.65989 6.7249C2.28601 6.09878 3.04438 5.78572 3.935 5.78572C4.77875 5.78572 5.50866 6.07367 6.12474 6.64956L9.74081 4.84153C9.72741 4.69421 9.72072 4.58037 9.72072 4.50001C9.72072 3.60938 10.0338 2.85101 10.6599 2.2249C11.286 1.59878 12.0444 1.28572 12.935 1.28572C13.8256 1.28572 14.584 1.59878 15.2101 2.2249C15.8362 2.85101 16.1493 3.60938 16.1493 4.50001C16.1493 5.39063 15.8362 6.149 15.2101 6.77512C14.584 7.40124 13.8256 7.71429 12.935 7.71429C12.0913 7.71429 11.3613 7.42635 10.7453 6.85046L7.1292 8.65849C7.14259 8.80581 7.14929 8.91965 7.14929 9.00001C7.14929 9.08037 7.14259 9.19421 7.1292 9.34153L10.7453 11.1496C11.3613 10.5737 12.0913 10.2857 12.935 10.2857Z" fill="white"/>
</g>
<defs>
<clipPath id="clip0_1_123">
<rect width="15.43" height="18" fill="white" transform="matrix(1 0 0 -1 0.720001 18)"/>
</clipPath>
</defs>
</svg>
