<svg width="25" height="25" viewBox="0 0 25 25" fill="none" xmlns="http://www.w3.org/2000/svg">
<g clip-path="url(#clip0_1_77)">
<path d="M23.69 11.3516C24.19 11.5703 24.44 11.9609 24.44 12.5234C24.44 13.0859 24.19 13.4766 23.69 13.6953L21.9088 14.5859L23.69 15.5234C24.19 15.7422 24.44 16.125 24.44 16.6719C24.44 17.2188 24.19 17.6172 23.69 17.8672L13.6119 22.9297C13.2369 23.1172 12.8463 23.2109 12.44 23.2109C12.0338 23.2109 11.6431 23.1172 11.2681 22.9297L1.19 17.8672C0.690002 17.6172 0.440002 17.2188 0.440002 16.6719C0.440002 16.125 0.690002 15.7422 1.19 15.5234L2.97125 14.5859L1.19 13.6953C0.690002 13.4766 0.440002 13.0859 0.440002 12.5234C0.440002 11.9609 0.690002 11.5703 1.19 11.3516L2.97125 10.4609L1.19 9.52344C0.690002 9.30469 0.440002 8.92188 0.440002 8.375C0.440002 7.82812 0.690002 7.42969 1.19 7.17969L11.2681 2.11719C12.0494 1.74219 12.8306 1.74219 13.6119 2.11719L23.69 7.17969C24.19 7.42969 24.44 7.82812 24.44 8.375C24.44 8.92188 24.19 9.30469 23.69 9.52344L21.9088 10.4609L23.69 11.3516ZM1.65875 8.53906L11.7369 13.6016C12.2056 13.8203 12.6744 13.8203 13.1431 13.6016L23.2213 8.53906C23.2838 8.50781 23.315 8.44531 23.315 8.35156C23.315 8.25781 23.2838 8.19531 23.2213 8.16406L13.1431 3.10156C12.9244 3.00781 12.69 2.96094 12.44 2.96094C12.19 2.96094 11.9556 3.00781 11.7369 3.10156L1.65875 8.16406C1.59625 8.19531 1.565 8.25781 1.565 8.35156C1.565 8.44531 1.59625 8.50781 1.65875 8.53906ZM23.2213 16.5078L20.69 15.2422L13.6119 18.7578C13.2369 18.9453 12.8463 19.0391 12.44 19.0391C12.0338 19.0391 11.6431 18.9453 11.2681 18.7578L4.19 15.2422L1.65875 16.5078C1.59625 16.5391 1.565 16.6016 1.565 16.6953C1.565 16.7891 1.59625 16.8516 1.65875 16.8828L11.7369 21.9453C12.2056 22.1641 12.6744 22.1641 13.1431 21.9453L23.2213 16.8828C23.2838 16.8516 23.315 16.7891 23.315 16.6953C23.315 16.6016 23.2838 16.5391 23.2213 16.5078ZM23.2213 12.7109C23.2838 12.6797 23.315 12.6172 23.315 12.5234C23.315 12.4297 23.2838 12.3672 23.2213 12.3359L20.69 11.0703L13.6119 14.5859C13.2369 14.7734 12.8463 14.8672 12.44 14.8672C12.0338 14.8672 11.6431 14.7734 11.2681 14.5859L4.19 11.0703L1.65875 12.3359C1.59625 12.3672 1.565 12.4297 1.565 12.5234C1.565 12.6172 1.59625 12.6797 1.65875 12.7109L11.7369 17.7734C12.2056 17.9922 12.6744 17.9922 13.1431 17.7734L23.2213 12.7109Z" fill="#777777"/>
</g>
<defs>
<clipPath id="clip0_1_77">
<rect width="24" height="25" fill="white" transform="matrix(1 0 0 -1 0.440002 25)"/>
</clipPath>
</defs>
</svg>
