<svg width="25" height="25" viewBox="0 0 25 25" fill="none" xmlns="http://www.w3.org/2000/svg">
<g clip-path="url(#clip0_1_91)">
<path d="M12.2517 14.6328C12.2517 14.3828 12.3767 14.2578 12.6267 14.2578C12.8767 14.2578 13.0017 14.3828 13.0017 14.6328V16.0391C13.0017 16.2891 12.8767 16.4141 12.6267 16.4141C12.3767 16.4141 12.2517 16.2891 12.2517 16.0391V14.6328ZM12.2517 9.00781C12.2517 8.75781 12.3767 8.63281 12.6267 8.63281C12.8767 8.63281 13.0017 8.75781 13.0017 9.00781V10.4141C13.0017 10.6641 12.8767 10.7891 12.6267 10.7891C12.3767 10.7891 12.2517 10.6641 12.2517 10.4141V9.00781ZM12.2517 17.4453C12.2517 17.1953 12.3767 17.0703 12.6267 17.0703C12.8767 17.0703 13.0017 17.1953 13.0017 17.4453V18.8984C13.0017 19.1484 12.8767 19.2734 12.6267 19.2734C12.3767 19.2734 12.2517 19.1484 12.2517 18.8984V17.4453ZM12.2517 6.14844C12.2517 5.89844 12.3767 5.77344 12.6267 5.77344C12.8767 5.77344 13.0017 5.89844 13.0017 6.14844V7.60156C13.0017 7.85156 12.8767 7.97656 12.6267 7.97656C12.3767 7.97656 12.2517 7.85156 12.2517 7.60156V6.14844ZM7.7048 12.1484C7.9548 12.1484 8.0798 12.2734 8.0798 12.5234C8.0798 12.7734 7.9548 12.8984 7.7048 12.8984H6.25168C6.00168 12.8984 5.87668 12.7734 5.87668 12.5234C5.87668 12.2734 6.00168 12.1484 6.25168 12.1484H7.7048ZM10.5173 12.1484C10.7673 12.1484 10.8923 12.2734 10.8923 12.5234C10.8923 12.7734 10.7673 12.8984 10.5173 12.8984H9.11105C8.86105 12.8984 8.73605 12.7734 8.73605 12.5234C8.73605 12.2734 8.86105 12.1484 9.11105 12.1484H10.5173ZM13.3298 12.1484C13.5798 12.1484 13.7048 12.2734 13.7048 12.5234C13.7048 12.7734 13.5798 12.8984 13.3298 12.8984H13.0017V13.2266C13.0017 13.4766 12.8767 13.6016 12.6267 13.6016C12.3767 13.6016 12.2517 13.4766 12.2517 13.2266V12.8984H11.9236C11.6736 12.8984 11.5486 12.7734 11.5486 12.5234C11.5486 12.2734 11.6736 12.1484 11.9236 12.1484H12.2517V11.8203C12.2517 11.5703 12.3767 11.4453 12.6267 11.4453C12.8767 11.4453 13.0017 11.5703 13.0017 11.8203V12.1484H13.3298ZM19.0017 12.1484C19.2517 12.1484 19.3767 12.2734 19.3767 12.5234C19.3767 12.7734 19.2517 12.8984 19.0017 12.8984H17.5486C17.2986 12.8984 17.1736 12.7734 17.1736 12.5234C17.1736 12.2734 17.2986 12.1484 17.5486 12.1484H19.0017ZM16.1423 12.1484C16.3923 12.1484 16.5173 12.2734 16.5173 12.5234C16.5173 12.7734 16.3923 12.8984 16.1423 12.8984H14.7361C14.4861 12.8984 14.3611 12.7734 14.3611 12.5234C14.3611 12.2734 14.4861 12.1484 14.7361 12.1484H16.1423ZM21.2517 3.61719C21.5017 3.61719 21.6267 3.74219 21.6267 3.99219V21.0547C21.6267 21.3047 21.5017 21.4297 21.2517 21.4297H4.00168C3.75168 21.4297 3.62668 21.3047 3.62668 21.0547V3.99219C3.62668 3.74219 3.75168 3.61719 4.00168 3.61719H21.2517ZM20.8767 12.1484V4.36719H13.0017V4.74219C13.0017 4.99219 12.8767 5.11719 12.6267 5.11719C12.3767 5.11719 12.2517 4.99219 12.2517 4.74219V4.36719H4.37668V12.1484H4.84543C5.09543 12.1484 5.22043 12.2734 5.22043 12.5234C5.22043 12.7734 5.09543 12.8984 4.84543 12.8984H4.37668V20.6797H12.2517V20.3047C12.2517 20.0547 12.3767 19.9297 12.6267 19.9297C12.8767 19.9297 13.0017 20.0547 13.0017 20.3047V20.6797H20.8767V12.8984H20.4079C20.1579 12.8984 20.0329 12.7734 20.0329 12.5234C20.0329 12.2734 20.1579 12.1484 20.4079 12.1484H20.8767ZM20.8767 1.17969C20.8767 0.929687 21.0017 0.804688 21.2517 0.804688C21.5017 0.804688 21.6267 0.929687 21.6267 1.17969V2.82031C21.6267 3.07031 21.5017 3.19531 21.2517 3.19531C21.0017 3.19531 20.8767 3.07031 20.8767 2.82031V1.17969ZM24.2517 3.61719C24.5017 3.61719 24.6267 3.74219 24.6267 3.99219C24.6267 4.24219 24.5017 4.36719 24.2517 4.36719H22.6579C22.4079 4.36719 22.2829 4.24219 22.2829 3.99219C22.2829 3.74219 22.4079 3.61719 22.6579 3.61719H24.2517ZM3.62668 1.17969C3.62668 0.929687 3.75168 0.804688 4.00168 0.804688C4.25168 0.804688 4.37668 0.929687 4.37668 1.17969V2.82031C4.37668 3.07031 4.25168 3.19531 4.00168 3.19531C3.75168 3.19531 3.62668 3.07031 3.62668 2.82031V1.17969ZM2.59543 3.61719C2.84543 3.61719 2.97043 3.74219 2.97043 3.99219C2.97043 4.24219 2.84543 4.36719 2.59543 4.36719H1.00168C0.751678 4.36719 0.626678 4.24219 0.626678 3.99219C0.626678 3.74219 0.751678 3.61719 1.00168 3.61719H2.59543ZM20.8767 22.2266C20.8767 21.9766 21.0017 21.8516 21.2517 21.8516C21.5017 21.8516 21.6267 21.9766 21.6267 22.2266V23.8672C21.6267 24.1172 21.5017 24.2422 21.2517 24.2422C21.0017 24.2422 20.8767 24.1172 20.8767 23.8672V22.2266ZM24.2517 20.6797C24.5017 20.6797 24.6267 20.8047 24.6267 21.0547C24.6267 21.3047 24.5017 21.4297 24.2517 21.4297H22.6579C22.4079 21.4297 22.2829 21.3047 22.2829 21.0547C22.2829 20.8047 22.4079 20.6797 22.6579 20.6797H24.2517ZM3.62668 22.2266C3.62668 21.9766 3.75168 21.8516 4.00168 21.8516C4.25168 21.8516 4.37668 21.9766 4.37668 22.2266V23.8672C4.37668 24.1172 4.25168 24.2422 4.00168 24.2422C3.75168 24.2422 3.62668 24.1172 3.62668 23.8672V22.2266ZM2.59543 20.6797C2.84543 20.6797 2.97043 20.8047 2.97043 21.0547C2.97043 21.3047 2.84543 21.4297 2.59543 21.4297H1.00168C0.751678 21.4297 0.626678 21.3047 0.626678 21.0547C0.626678 20.8047 0.751678 20.6797 1.00168 20.6797H2.59543Z" fill="#777777"/>
</g>
<defs>
<clipPath id="clip0_1_91">
<rect width="24" height="25" fill="white" transform="matrix(1 0 0 -1 0.626678 25)"/>
</clipPath>
</defs>
</svg>
