<svg width="9" height="16" viewBox="0 0 9 16" fill="none" xmlns="http://www.w3.org/2000/svg">
<g clip-path="url(#clip0_1_209)">
<path d="M6.22504 7.67228C6.22504 7.67228 6.32967 7.56764 6.53893 7.35838C6.74819 7.14912 6.85283 6.74873 6.85283 6.15721C6.85283 5.56569 6.64356 5.06067 6.22504 4.64214C5.80651 4.22362 5.30149 4.01435 4.70997 4.01435C4.11845 4.01435 3.61343 4.22362 3.1949 4.64214C2.77638 5.06067 2.56711 5.56569 2.56711 6.15721C2.56711 6.74873 2.77638 7.25375 3.1949 7.67228C3.61343 8.0908 4.11845 8.30007 4.70997 8.30007C5.30149 8.30007 5.80651 8.0908 6.22504 7.67228ZM8.99568 6.15721C8.99568 6.76547 8.90361 7.26491 8.71946 7.65554L5.67258 14.1343C5.5833 14.3185 5.45076 14.4636 5.27498 14.5696C5.0992 14.6756 4.91086 14.7286 4.70997 14.7286C4.50908 14.7286 4.32074 14.6756 4.14496 14.5696C3.96918 14.4636 3.83943 14.3185 3.75573 14.1343L0.700483 7.65554C0.516331 7.26491 0.424255 6.76547 0.424255 6.15721C0.424255 4.97417 0.842782 3.96413 1.67984 3.12708C2.51689 2.29002 3.52693 1.8715 4.70997 1.8715C5.89301 1.8715 6.90305 2.29002 7.7401 3.12708C8.57716 3.96413 8.99568 4.97417 8.99568 6.15721Z" fill="#71B100"/>
</g>
<defs>
<clipPath id="clip0_1_209">
<rect width="8.58" height="15" fill="white" transform="matrix(1 0 0 -1 0.419983 15.8)"/>
</clipPath>
</defs>
</svg>
