<svg width="24" height="25" viewBox="0 0 24 25" fill="none" xmlns="http://www.w3.org/2000/svg">
<g clip-path="url(#clip0_1_111)">
<path d="M23.4375 12.9922C23.5937 12.9922 23.7266 13.0469 23.8359 13.1562C23.9453 13.2656 24 13.3984 24 13.5547C24 13.7109 23.9453 13.8438 23.8359 13.9531C23.7266 14.0625 23.5937 14.1172 23.4375 14.1172H22.6406V14.2578V18.2422C22.6406 19.0859 22.3672 19.8438 21.8203 20.5156C21.2734 21.1875 20.5781 21.6016 19.7344 21.7578C19.8594 22.0391 19.9219 22.3203 19.9219 22.6016C19.9219 22.9453 19.8437 23.2578 19.6875 23.5391C19.5313 23.8203 19.3125 24.0469 19.0312 24.2188C18.75 24.3906 18.4375 24.4766 18.0938 24.4766C17.5937 24.4766 17.1562 24.2891 16.7812 23.9141C16.4062 23.5391 16.2188 23.1016 16.2188 22.6016C16.2188 22.3203 16.2812 22.0703 16.4062 21.8516H7.54688C7.64062 22.0703 7.6875 22.3203 7.6875 22.6016C7.6875 23.1016 7.50781 23.5391 7.14844 23.9141C6.78906 24.2891 6.35156 24.4766 5.83594 24.4766C5.32031 24.4766 4.88281 24.2891 4.52344 23.9141C4.16406 23.5391 3.98438 23.1016 3.98438 22.6016C3.98438 22.3203 4.04687 22.0391 4.17188 21.7578C3.64063 21.6641 3.14844 21.4453 2.69531 21.1016C2.24219 20.7578 1.89063 20.3359 1.64062 19.8359C1.39062 19.3359 1.26562 18.8047 1.26562 18.2422V14.1172H0.5625C0.40625 14.1172 0.273437 14.0625 0.164062 13.9531C0.0546875 13.8438 0 13.7109 0 13.5547C0 13.3984 0.0546875 13.2656 0.164062 13.1562C0.273437 13.0469 0.40625 12.9922 0.5625 12.9922H21.5156V4.78906C21.5156 2.75781 20.7031 1.74219 19.0781 1.74219C18.4531 1.74219 17.9141 1.95312 17.4609 2.375C17.0078 2.79688 16.7656 3.32031 16.7344 3.94531C17.8906 4.16406 18.6406 4.80469 18.9844 5.86719C19.1094 6.27344 19.0781 6.61719 18.8906 6.89844C18.7031 7.14844 18.4375 7.27344 18.0938 7.27344H14.3438C13.9375 7.27344 13.6328 7.13281 13.4297 6.85156C13.2266 6.57031 13.1875 6.24219 13.3125 5.86719C13.6563 4.80469 14.4219 4.16406 15.6094 3.94531C15.6406 3.00781 15.9922 2.21094 16.6641 1.55469C17.3359 0.898438 18.1406 0.570312 19.0781 0.570312C20.1406 0.570312 20.9844 0.898438 21.6094 1.55469C22.2969 2.27344 22.6406 3.35156 22.6406 4.78906V12.9922H23.4375ZM17.8594 6.14844C17.5781 5.39844 17.0078 5.02344 16.1484 5.02344C15.2891 5.02344 14.7031 5.39844 14.3906 6.14844H17.8594ZM5.32031 23.0938C5.32031 23.0938 5.35547 23.1289 5.42578 23.1992C5.49609 23.2695 5.63281 23.3047 5.83594 23.3047C6.03906 23.3047 6.21094 23.2344 6.35156 23.0938C6.49219 22.9531 6.5625 22.7891 6.5625 22.6016C6.5625 22.4141 6.49219 22.2422 6.35156 22.0859C6.21094 21.9297 6.03906 21.8516 5.83594 21.8516C5.63281 21.8516 5.46094 21.9297 5.32031 22.0859C5.17969 22.2422 5.10938 22.4141 5.10938 22.6016C5.10938 22.7891 5.17969 22.9531 5.32031 23.0938ZM17.5547 23.0938C17.5547 23.0938 17.5898 23.1289 17.6602 23.1992C17.7305 23.2695 17.8672 23.3047 18.0703 23.3047C18.2734 23.3047 18.4453 23.2344 18.5859 23.0938C18.7266 22.9531 18.7969 22.7891 18.7969 22.6016C18.7969 22.4141 18.7266 22.2422 18.5859 22.0859C18.4453 21.9297 18.2734 21.8516 18.0703 21.8516C17.8672 21.8516 17.6953 21.9297 17.5547 22.0859C17.4141 22.2422 17.3438 22.4141 17.3438 22.6016C17.3438 22.7891 17.4141 22.9531 17.5547 23.0938ZM21.5156 14.2578V14.1172H2.39062V18.2422C2.39062 18.8984 2.63281 19.4688 3.11719 19.9531C3.60156 20.4375 4.1875 20.6797 4.875 20.6797H19.0312C19.7188 20.6797 20.3047 20.4375 20.7891 19.9531C21.2734 19.4688 21.5156 18.8984 21.5156 18.2422V14.2578ZM16.4297 9.07812C16.4297 9.07812 16.4023 9.10547 16.3477 9.16016C16.293 9.21484 16.1953 9.24219 16.0547 9.24219C15.9141 9.24219 15.7891 9.1875 15.6797 9.07812C15.5703 8.96875 15.5156 8.83594 15.5156 8.67969V8.49219C15.5156 8.33594 15.5703 8.20312 15.6797 8.09375C15.7891 7.98438 15.9141 7.92969 16.0547 7.92969C16.1953 7.92969 16.3203 7.98438 16.4297 8.09375C16.5391 8.20312 16.5938 8.33594 16.5938 8.49219V8.67969C16.5938 8.83594 16.5391 8.96875 16.4297 9.07812ZM15.5156 10.2734V10.0391C15.5156 9.91406 15.5703 9.79687 15.6797 9.6875C15.7891 9.57813 15.9141 9.52344 16.0547 9.52344C16.1953 9.52344 16.3203 9.57813 16.4297 9.6875C16.5391 9.79687 16.5938 9.91406 16.5938 10.0391V10.2734C16.5938 10.4297 16.5391 10.5625 16.4297 10.6719C16.3203 10.7812 16.1953 10.8359 16.0547 10.8359C15.9141 10.8359 15.7891 10.7812 15.6797 10.6719C15.5703 10.5625 15.5156 10.4297 15.5156 10.2734ZM15.5156 11.9609V11.6797C15.5156 11.5547 15.5703 11.4375 15.6797 11.3281C15.7891 11.2188 15.9141 11.1641 16.0547 11.1641C16.1953 11.1641 16.3203 11.2188 16.4297 11.3281C16.5391 11.4375 16.5938 11.5547 16.5938 11.6797V11.9609C16.5938 12.1172 16.5391 12.25 16.4297 12.3594C16.3203 12.4687 16.1953 12.5234 16.0547 12.5234C15.9141 12.5234 15.7891 12.4687 15.6797 12.3594C15.5703 12.25 15.5156 12.1172 15.5156 11.9609ZM14.3438 9.28906C14 9.16406 13.8906 8.92969 14.0156 8.58594L14.0625 8.39844C14.1875 8.05469 14.4219 7.94531 14.7656 8.07031C15.1094 8.19531 15.2188 8.42969 15.0938 8.77344L15 8.96094C14.9062 9.21094 14.7344 9.33594 14.4844 9.33594C14.4219 9.33594 14.375 9.32031 14.3438 9.28906ZM13.5469 9.89844C13.6406 9.55469 13.8594 9.44531 14.2031 9.57031C14.5469 9.69531 14.6563 9.92969 14.5312 10.2734L14.4844 10.4609C14.3906 10.7109 14.2188 10.8359 13.9688 10.8359C13.9062 10.8359 13.8438 10.8203 13.7812 10.7891C13.4375 10.6641 13.3281 10.4297 13.4531 10.0859L13.5469 9.89844ZM13.2188 12.3359C12.875 12.2109 12.7656 11.9766 12.8906 11.6328L12.9375 11.4453C13.0625 11.1328 13.2969 11.0391 13.6406 11.1641C13.9844 11.2891 14.0938 11.5078 13.9688 11.8203L13.9219 12.0078C13.8281 12.2578 13.6563 12.3828 13.4062 12.3828C13.3437 12.3828 13.2813 12.3672 13.2188 12.3359ZM18.1406 8.39844L18.2344 8.58594C18.3594 8.92969 18.25 9.16406 17.9062 9.28906C17.8437 9.32031 17.7813 9.33594 17.7188 9.33594C17.4687 9.33594 17.2969 9.21094 17.2031 8.96094L17.1562 8.77344C17.0312 8.42969 17.1328 8.19531 17.4609 8.07031C17.7891 7.94531 18.0156 8.05469 18.1406 8.39844ZM18.7031 9.89844L18.75 10.0859C18.875 10.4297 18.7656 10.6641 18.4219 10.7891C18.3594 10.8203 18.2969 10.8359 18.2344 10.8359C17.9844 10.8359 17.8281 10.7109 17.7656 10.4609L17.6719 10.2734C17.5469 9.92969 17.6562 9.69531 18 9.57031C18.3438 9.44531 18.5781 9.55469 18.7031 9.89844ZM18.2344 11.8203C18.1094 11.5078 18.2187 11.2891 18.5625 11.1641C18.9063 11.0391 19.1406 11.1328 19.2656 11.4453L19.3125 11.6328C19.4375 11.9766 19.3281 12.2109 18.9844 12.3359C18.9219 12.3672 18.8594 12.3828 18.7969 12.3828C18.5469 12.3828 18.3906 12.2578 18.3281 12.0078L18.2344 11.8203Z" fill="#777777"/>
</g>
<defs>
<clipPath id="clip0_1_111">
<rect width="24" height="25" fill="white" transform="matrix(1 0 0 -1 0 25)"/>
</clipPath>
</defs>
</svg>
