<svg width="16" height="16" viewBox="0 0 16 16" fill="none" xmlns="http://www.w3.org/2000/svg">
<g clip-path="url(#clip0_1_432)">
<path d="M14.1586 8.44566C13.3103 7.1287 12.2473 6.14376 10.9694 5.49086C11.3098 6.07122 11.48 6.69901 11.48 7.37423C11.48 8.4066 11.1131 9.28969 10.3793 10.0235C9.64544 10.7573 8.76235 11.1242 7.72998 11.1242C6.69761 11.1242 5.81452 10.7573 5.08071 10.0235C4.34689 9.28969 3.97998 8.4066 3.97998 7.37423C3.97998 6.69901 4.15018 6.07122 4.49058 5.49086C3.21268 6.14376 2.14962 7.1287 1.30141 8.44566C2.0436 9.58963 2.97412 10.5006 4.09298 11.1786C5.21184 11.8567 6.42418 12.1957 7.72998 12.1957C9.03578 12.1957 10.2481 11.8567 11.367 11.1786C12.4858 10.5006 13.4164 9.58963 14.1586 8.44566ZM8.01458 5.51597C8.01458 5.51597 8.03411 5.49644 8.07317 5.45738C8.11223 5.41832 8.13177 5.34298 8.13177 5.23138C8.13177 5.11977 8.0927 5.0249 8.01458 4.94678C7.93645 4.86865 7.84159 4.82959 7.72998 4.82959C7.03244 4.82959 6.43394 5.07931 5.9345 5.57875C5.43506 6.07819 5.18534 6.67669 5.18534 7.37423C5.18534 7.48584 5.2244 7.58071 5.30252 7.65883C5.38065 7.73696 5.47552 7.77602 5.58712 7.77602C5.69873 7.77602 5.7936 7.73696 5.87172 7.65883C5.94985 7.58071 5.98891 7.48584 5.98891 7.37423C5.98891 6.89432 6.15911 6.48417 6.49951 6.14376C6.83991 5.80336 7.25007 5.63316 7.72998 5.63316C7.84159 5.63316 7.93645 5.5941 8.01458 5.51597ZM15.0626 7.86809C15.1742 8.06341 15.23 8.25593 15.23 8.44566C15.23 8.63539 15.1742 8.82792 15.0626 9.02323C14.2813 10.3067 13.2308 11.3349 11.9111 12.1078C10.5913 12.8807 9.19761 13.2671 7.72998 13.2671C6.26235 13.2671 4.86865 12.8793 3.5489 12.1036C2.22914 11.3279 1.17864 10.3011 0.397391 9.02323C0.285784 8.82792 0.22998 8.63539 0.22998 8.44566C0.22998 8.25593 0.285784 8.06341 0.397391 7.86809C1.17864 6.59019 2.22914 5.56341 3.5489 4.78774C4.86865 4.01207 6.26235 3.62423 7.72998 3.62423C9.19761 3.62423 10.5913 4.01207 11.9111 4.78774C13.2308 5.56341 14.2813 6.59019 15.0626 7.86809Z" fill="#71B100"/>
</g>
<defs>
<clipPath id="clip0_1_432">
<rect width="15" height="15" fill="white" transform="matrix(1 0 0 -1 0.22998 15.4102)"/>
</clipPath>
</defs>
</svg>
