<svg width="25" height="25" viewBox="0 0 25 25" fill="none" xmlns="http://www.w3.org/2000/svg">
<g clip-path="url(#clip0_1_101)">
<path d="M22.7977 11.0703C23.3915 11.1953 23.8759 11.4844 24.2509 11.9375C24.6259 12.3906 24.8134 12.9141 24.8134 13.5078V16.5078V18.5234V20.5391C24.8134 20.6641 24.7665 20.7734 24.6727 20.8672C24.579 20.9609 24.4618 21.0078 24.3212 21.0078C24.1805 21.0078 24.0634 20.9609 23.9696 20.8672C23.8759 20.7734 23.829 20.6641 23.829 20.5391V19.0391H1.79773V20.5391C1.79773 20.6641 1.75085 20.7734 1.6571 20.8672C1.56335 20.9609 1.44617 21.0078 1.30554 21.0078C1.16492 21.0078 1.04773 20.9609 0.953979 20.8672C0.860229 20.7734 0.813354 20.6641 0.813354 20.5391V18.5234V16.5078V13.5078C0.813354 12.9141 1.00085 12.3906 1.37585 11.9375C1.75085 11.4844 2.23523 11.1953 2.82898 11.0703V6.52344C2.82898 5.83594 3.07117 5.25 3.55554 4.76562C4.03992 4.28125 4.62585 4.03906 5.31335 4.03906H20.3134C21.0009 4.03906 21.5868 4.28125 22.0712 4.76562C22.5555 5.25 22.7977 5.83594 22.7977 6.52344V11.0703ZM3.81335 6.52344V11.0234H5.17273C5.07898 10.7422 5.06335 10.4609 5.12585 10.1797L5.64148 8.16406C5.73523 7.82031 5.91492 7.54688 6.18054 7.34375C6.44617 7.14062 6.75085 7.03906 7.0946 7.03906H10.329C10.7352 7.03906 11.0868 7.17969 11.3837 7.46094C11.6805 7.74219 11.829 8.10156 11.829 8.53906V10.5078C11.829 10.6953 11.7977 10.8672 11.7352 11.0234H13.8915C13.829 10.8359 13.7977 10.6641 13.7977 10.5078V8.53906C13.7977 8.10156 13.9462 7.74219 14.243 7.46094C14.5399 7.17969 14.8915 7.03906 15.2977 7.03906H18.5321C18.7509 7.03906 18.9618 7.08594 19.1649 7.17969C19.368 7.27344 19.5399 7.40625 19.6805 7.57812C19.8212 7.75 19.9227 7.94531 19.9852 8.16406L20.5009 10.1797C20.5634 10.4609 20.5477 10.7422 20.454 11.0234H21.8134V6.52344C21.8134 6.11719 21.6649 5.76563 21.368 5.46875C21.0712 5.17187 20.7196 5.02344 20.3134 5.02344H5.31335C4.9071 5.02344 4.55554 5.17187 4.25867 5.46875C3.96179 5.76563 3.81335 6.11719 3.81335 6.52344ZM19.0477 11.0234C19.204 11.0234 19.329 10.9609 19.4227 10.8359C19.5165 10.7109 19.5477 10.5703 19.5165 10.4141L19.0009 8.39844C18.9384 8.14844 18.7821 8.02344 18.5321 8.02344H15.2977C15.1727 8.02344 15.0634 8.07031 14.9696 8.16406C14.8759 8.25781 14.829 8.38281 14.829 8.53906V10.5078C14.829 10.6641 14.8759 10.7891 14.9696 10.8828C15.0634 10.9766 15.1727 11.0234 15.2977 11.0234H19.0477ZM10.7977 8.53906C10.7977 8.38281 10.7509 8.25781 10.6571 8.16406C10.5634 8.07031 10.454 8.02344 10.329 8.02344H7.0946C6.8446 8.02344 6.68835 8.14844 6.62585 8.39844L6.11023 10.4141C6.07898 10.5703 6.11023 10.7109 6.20398 10.8359C6.29773 10.9609 6.42273 11.0234 6.57898 11.0234H10.329C10.454 11.0234 10.5634 10.9766 10.6571 10.8828C10.7509 10.7891 10.7977 10.6641 10.7977 10.5078V8.53906ZM23.829 18.0078V17.0234H1.79773V18.0078H23.829ZM23.829 16.0391V13.5078C23.829 13.1016 23.6805 12.75 23.3837 12.4531C23.0868 12.1562 22.7352 12.0078 22.329 12.0078H19.0477H15.2977H10.329H6.57898H3.29773C2.89148 12.0078 2.53992 12.1562 2.24304 12.4531C1.94617 12.75 1.79773 13.1016 1.79773 13.5078V16.0391H23.829Z" fill="#777777"/>
</g>
<defs>
<clipPath id="clip0_1_101">
<rect width="24" height="25" fill="white" transform="matrix(1 0 0 -1 0.813354 25)"/>
</clipPath>
</defs>
</svg>
