<svg width="14" height="17" viewBox="0 0 14 17" fill="none" xmlns="http://www.w3.org/2000/svg">
<g clip-path="url(#clip0_1_344)">
<path d="M10.6161 10.4013C10.6161 10.1036 10.5581 9.83132 10.442 9.5843C10.3259 9.33727 10.1816 9.13341 10.009 8.97269C9.83634 8.81198 9.61907 8.66614 9.35717 8.53519C9.09526 8.40424 8.84973 8.30305 8.62056 8.23162C8.3914 8.16019 8.13098 8.09174 7.83931 8.02626L6.91074 7.81198C6.73217 7.77031 6.60122 7.73906 6.51788 7.71823C6.43455 7.69739 6.33038 7.66317 6.20538 7.61555C6.08038 7.56793 5.9911 7.52031 5.93753 7.47269C5.88395 7.42507 5.83485 7.36257 5.7902 7.28519C5.74556 7.20781 5.72324 7.11852 5.72324 7.01733C5.72324 6.559 6.15181 6.32983 7.00896 6.32983C7.26491 6.32983 7.49407 6.36555 7.69646 6.43698C7.89884 6.5084 8.05955 6.59323 8.1786 6.69144C8.29765 6.78966 8.41074 6.88936 8.51788 6.99055C8.62503 7.09174 8.74407 7.17805 8.87503 7.24948C9.00598 7.32091 9.14884 7.35662 9.3036 7.35662C9.58336 7.35662 9.80806 7.26138 9.97771 7.07091C10.1473 6.88043 10.2322 6.65126 10.2322 6.3834C10.2322 6.05602 10.0655 5.75989 9.73217 5.49501C9.39884 5.23013 8.97622 5.02924 8.46431 4.89233C7.95241 4.75543 7.41074 4.68698 6.83931 4.68698C6.43455 4.68698 6.04169 4.73311 5.66074 4.82537C5.27979 4.91763 4.92413 5.05751 4.59378 5.24501C4.26342 5.43251 3.99854 5.69144 3.79913 6.0218C3.59973 6.35215 3.50003 6.7346 3.50003 7.16912C3.50003 7.53221 3.55657 7.84918 3.66967 8.12001C3.78276 8.39085 3.94943 8.61555 4.16967 8.79412C4.38991 8.97269 4.628 9.11704 4.88395 9.22716C5.13991 9.33727 5.44645 9.434 5.8036 9.51733L7.10717 9.83876C7.64288 9.96971 7.97622 10.0769 8.10717 10.1602C8.29765 10.2792 8.39288 10.4578 8.39288 10.6959C8.39288 10.928 8.27384 11.12 8.03574 11.2718C7.79765 11.4236 7.48515 11.4995 7.09824 11.4995C6.79467 11.4995 6.52235 11.4519 6.28128 11.3566C6.0402 11.2614 5.84675 11.1468 5.70092 11.0129C5.55509 10.8789 5.41967 10.745 5.29467 10.6111C5.16967 10.4772 5.03276 10.3626 4.88395 10.2673C4.73515 10.1721 4.57443 10.1245 4.40181 10.1245C4.10419 10.1245 3.87949 10.2138 3.7277 10.3923C3.57592 10.5709 3.50003 10.7941 3.50003 11.062C3.50003 11.6096 3.86312 12.0783 4.58931 12.4682C5.3155 12.8581 6.18157 13.053 7.18753 13.053C7.62205 13.053 8.03872 12.998 8.43753 12.8879C8.83634 12.7778 9.20092 12.6185 9.53128 12.4102C9.86163 12.2019 10.125 11.9236 10.3215 11.5754C10.5179 11.2272 10.6161 10.8358 10.6161 10.4013ZM13.8572 12.3388C13.8572 13.2852 13.5223 14.0932 12.8527 14.7629C12.1831 15.4325 11.375 15.7673 10.4286 15.7673C9.65479 15.7673 8.95836 15.5292 8.33931 15.053C7.88098 15.1483 7.43455 15.1959 7.00003 15.1959C6.14884 15.1959 5.33485 15.0307 4.55806 14.7004C3.78128 14.37 3.11163 13.9236 2.54913 13.3611C1.98663 12.7986 1.5402 12.1289 1.20985 11.3522C0.87949 10.5754 0.714312 9.76138 0.714312 8.91019C0.714312 8.47567 0.761931 8.02924 0.857169 7.57091C0.380979 6.95186 0.142883 6.25543 0.142883 5.48162C0.142883 4.53519 0.477705 3.72715 1.14735 3.05751C1.81699 2.38787 2.62503 2.05305 3.57145 2.05305C4.34526 2.05305 5.04169 2.29114 5.66074 2.76733C6.11907 2.6721 6.5655 2.62448 7.00003 2.62448C7.85122 2.62448 8.66521 2.78965 9.44199 3.12001C10.2188 3.45037 10.8884 3.8968 11.4509 4.4593C12.0134 5.0218 12.4598 5.69144 12.7902 6.46823C13.1206 7.24501 13.2857 8.059 13.2857 8.91019C13.2857 9.34471 13.2381 9.79114 13.1429 10.2495C13.6191 10.8685 13.8572 11.565 13.8572 12.3388Z" fill="white"/>
</g>
<defs>
<clipPath id="clip0_1_344">
<rect width="13.72" height="16" fill="white" transform="matrix(1 0 0 -1 0.140015 16.9102)"/>
</clipPath>
</defs>
</svg>
