<svg width="14" height="17" viewBox="0 0 14 17" fill="none" xmlns="http://www.w3.org/2000/svg">
<g clip-path="url(#clip0_1_348)">
<path d="M8.6161 10.5263C8.6161 10.5263 8.72771 10.4147 8.95092 10.1914C9.17413 9.96823 9.28574 9.54114 9.28574 8.91019C9.28574 8.27924 9.06253 7.74055 8.6161 7.29412C8.16967 6.84769 7.63098 6.62448 7.00003 6.62448C6.36907 6.62448 5.83038 6.84769 5.38395 7.29412C4.93753 7.74055 4.71431 8.27924 4.71431 8.91019C4.71431 9.54114 4.93753 10.0798 5.38395 10.5263C5.83038 10.9727 6.36907 11.1959 7.00003 11.1959C7.63098 11.1959 8.16967 10.9727 8.6161 10.5263ZM9.4911 6.41912C9.4911 6.41912 9.66223 6.59025 10.0045 6.93251C10.3468 7.27477 10.5179 7.934 10.5179 8.91019C10.5179 9.88638 10.1756 10.7167 9.4911 11.4013C8.80657 12.0858 7.97622 12.428 7.00003 12.428C6.02384 12.428 5.19348 12.0858 4.50895 11.4013C3.82443 10.7167 3.48217 9.88638 3.48217 8.91019C3.48217 7.934 3.82443 7.10364 4.50895 6.41912C5.19348 5.7346 6.02384 5.39233 7.00003 5.39233C7.97622 5.39233 8.80657 5.7346 9.4911 6.41912ZM11.2411 4.66912C11.2411 4.66912 11.2813 4.7093 11.3616 4.78965C11.442 4.87001 11.4822 5.02329 11.4822 5.24948C11.4822 5.47567 11.4018 5.66912 11.2411 5.82983C11.0804 5.99055 10.8869 6.0709 10.6607 6.0709C10.4346 6.0709 10.2411 5.99055 10.0804 5.82983C9.91967 5.66912 9.83931 5.47567 9.83931 5.24948C9.83931 5.02329 9.91967 4.82983 10.0804 4.66912C10.2411 4.5084 10.4346 4.42805 10.6607 4.42805C10.8869 4.42805 11.0804 4.5084 11.2411 4.66912ZM7.68306 3.28073C7.68306 3.28073 7.57964 3.28147 7.37279 3.28296C7.16595 3.28445 7.04169 3.28519 7.00003 3.28519C6.95836 3.28519 6.73068 3.2837 6.31699 3.28073C5.9033 3.27775 5.58931 3.27775 5.37503 3.28073C5.16074 3.2837 4.87354 3.29263 4.51342 3.30751C4.1533 3.32239 3.84675 3.35215 3.59378 3.3968C3.3408 3.44144 3.128 3.4965 2.95538 3.56198C2.65776 3.68102 2.39586 3.85364 2.16967 4.07983C1.94348 4.30602 1.77086 4.56793 1.65181 4.86555C1.58634 5.03817 1.53128 5.25096 1.48663 5.50394C1.44199 5.75692 1.41223 6.06346 1.39735 6.42358C1.38247 6.7837 1.37354 7.07091 1.37056 7.28519C1.36759 7.49948 1.36759 7.81346 1.37056 8.22716C1.37354 8.64085 1.37503 8.86852 1.37503 8.91019C1.37503 8.95186 1.37354 9.17954 1.37056 9.59323C1.36759 10.0069 1.36759 10.3209 1.37056 10.5352C1.37354 10.7495 1.38247 11.0367 1.39735 11.3968C1.41223 11.7569 1.44199 12.0635 1.48663 12.3164C1.53128 12.5694 1.58634 12.7822 1.65181 12.9548C1.77086 13.2525 1.94348 13.5144 2.16967 13.7405C2.39586 13.9667 2.65776 14.1394 2.95538 14.2584C3.128 14.3239 3.3408 14.3789 3.59378 14.4236C3.84675 14.4682 4.1533 14.498 4.51342 14.5129C4.87354 14.5278 5.16074 14.5367 5.37503 14.5397C5.58931 14.5426 5.9033 14.5426 6.31699 14.5397C6.73068 14.5367 6.95836 14.5352 7.00003 14.5352C7.04169 14.5352 7.26937 14.5367 7.68306 14.5397C8.09675 14.5426 8.41074 14.5426 8.62503 14.5397C8.83931 14.5367 9.12651 14.5278 9.48663 14.5129C9.84675 14.498 10.1533 14.4682 10.4063 14.4236C10.6593 14.3789 10.8721 14.3239 11.0447 14.2584C11.3423 14.1394 11.6042 13.9667 11.8304 13.7405C12.0566 13.5144 12.2292 13.2525 12.3482 12.9548C12.4137 12.7822 12.4688 12.5694 12.5134 12.3164C12.5581 12.0635 12.5878 11.7569 12.6027 11.3968C12.6176 11.0367 12.6265 10.7495 12.6295 10.5352C12.6325 10.3209 12.6325 10.0069 12.6295 9.59323C12.6265 9.17954 12.625 8.95186 12.625 8.91019C12.625 8.86852 12.6265 8.64085 12.6295 8.22716C12.6325 7.81346 12.6325 7.49948 12.6295 7.28519C12.6265 7.07091 12.6176 6.7837 12.6027 6.42358C12.5878 6.06346 12.5581 5.75692 12.5134 5.50394C12.4688 5.25096 12.4137 5.03817 12.3482 4.86555C12.2292 4.56793 12.0566 4.30602 11.8304 4.07983C11.6042 3.85364 11.3423 3.68102 11.0447 3.56198C10.8721 3.4965 10.6593 3.44144 10.4063 3.3968C10.1533 3.35215 9.84675 3.32239 9.48663 3.30751C9.12651 3.29263 8.83931 3.2837 8.62503 3.28073C8.41074 3.27775 8.09675 3.27775 7.68306 3.28073ZM13.8125 6.07983C13.8423 6.60364 13.8572 7.5471 13.8572 8.91019C13.8572 10.2733 13.8423 11.2167 13.8125 11.7405C13.753 12.9786 13.384 13.937 12.7054 14.6155C12.0268 15.2941 11.0685 15.6632 9.83038 15.7227C9.30657 15.7525 8.36312 15.7673 7.00003 15.7673C5.63693 15.7673 4.69348 15.7525 4.16967 15.7227C2.93157 15.6632 1.97324 15.2941 1.29467 14.6155C0.616098 13.937 0.24705 12.9786 0.187526 11.7405C0.157764 11.2167 0.142883 10.2733 0.142883 8.91019C0.142883 7.5471 0.157764 6.60364 0.187526 6.07983C0.24705 4.84174 0.616098 3.8834 1.29467 3.20483C1.97324 2.52626 2.93157 2.15721 4.16967 2.09769C4.69348 2.06793 5.63693 2.05305 7.00003 2.05305C8.36312 2.05305 9.30657 2.06793 9.83038 2.09769C11.0685 2.15721 12.0268 2.52626 12.7054 3.20483C13.384 3.8834 13.753 4.84174 13.8125 6.07983Z" fill="white"/>
</g>
<defs>
<clipPath id="clip0_1_348">
<rect width="13.72" height="16" fill="white" transform="matrix(1 0 0 -1 0.140015 16.9102)"/>
</clipPath>
</defs>
</svg>
