<svg width="10" height="17" viewBox="0 0 10 17" fill="none" xmlns="http://www.w3.org/2000/svg">
<g clip-path="url(#clip0_1_68)">
<path d="M6.28107 7.83033C6.28107 7.83033 6.39267 7.71872 6.61589 7.49551C6.8391 7.27229 6.95071 6.84521 6.95071 6.21426C6.95071 5.58331 6.7275 5.04462 6.28107 4.59819C5.83464 4.15176 5.29595 3.92854 4.665 3.92854C4.03404 3.92854 3.49535 4.15176 3.04892 4.59819C2.6025 5.04462 2.37928 5.58331 2.37928 6.21426C2.37928 6.84521 2.6025 7.3839 3.04892 7.83033C3.49535 8.27676 4.03404 8.49997 4.665 8.49997C5.29595 8.49997 5.83464 8.27676 6.28107 7.83033ZM9.23642 6.21426C9.23642 6.86307 9.13821 7.39581 8.94178 7.81247L5.69178 14.7232C5.59654 14.9196 5.45517 15.0744 5.26767 15.1875C5.08017 15.3006 4.87928 15.3571 4.665 15.3571C4.45071 15.3571 4.24982 15.3006 4.06232 15.1875C3.87482 15.0744 3.73642 14.9196 3.64714 14.7232L0.38821 7.81247C0.191781 7.39581 0.0935669 6.86307 0.0935669 6.21426C0.0935669 4.95235 0.539995 3.87497 1.43285 2.98212C2.32571 2.08926 3.40309 1.64283 4.665 1.64283C5.9269 1.64283 7.00428 2.08926 7.89714 2.98212C8.79 3.87497 9.23642 4.95235 9.23642 6.21426Z" fill="#71B100"/>
</g>
<defs>
<clipPath id="clip0_1_68">
<rect width="9.15" height="16" fill="white" transform="matrix(1 0 0 -1 0.0899963 16.5)"/>
</clipPath>
</defs>
</svg>
