<svg width="18" height="20" viewBox="0 0 18 20" fill="none" xmlns="http://www.w3.org/2000/svg">
<g clip-path="url(#clip0_1_469)">
<path d="M17.0859 1.59941C17.4141 1.41191 17.666 1.38848 17.8418 1.5291C18.0176 1.66973 18.0469 1.92754 17.9297 2.30254L14.3789 15.451C14.332 15.5916 14.291 15.7322 14.2559 15.8729C14.2207 16.0135 14.1855 16.1365 14.1504 16.242C14.1152 16.3475 14.0859 16.4471 14.0625 16.5408C14.0391 16.6346 14.0215 16.699 14.0098 16.7342C13.998 16.7693 13.9922 16.7869 13.9922 16.7869C13.9922 16.7869 13.5586 16.6111 12.6914 16.2596L10.3359 15.2752C9.46875 14.9236 8.60156 14.5838 7.73438 14.2557L7.48828 14.1502C7.13672 14.0096 6.92578 13.7928 6.85547 13.4998C6.78516 13.2068 6.87891 12.9197 7.13672 12.6385L14.4141 4.86894C14.6719 4.58769 14.7891 4.42949 14.7656 4.39434C14.7422 4.35918 14.5781 4.45879 14.2734 4.69316L5.0625 11.9354C4.75781 12.1697 4.37109 12.3221 3.90234 12.3924C3.43359 12.4627 3.02344 12.4275 2.67188 12.2869L0.5625 11.4432C0.210938 11.3025 0.0234375 11.1209 0 10.8982C-0.0234375 10.6756 0.140625 10.4705 0.492188 10.283L17.0859 1.59941ZM7.20703 15.0291C7.58203 15.1932 7.82227 15.4393 7.92773 15.7674C8.0332 16.0955 7.98047 16.4236 7.76953 16.7518C7.72266 16.7986 7.67578 16.8572 7.62891 16.9275C7.58203 16.9979 7.49414 17.1326 7.36523 17.3318C7.23633 17.5311 7.11914 17.7127 7.01367 17.8768C6.9082 18.0408 6.79687 18.2107 6.67969 18.3865C6.5625 18.5623 6.46875 18.6971 6.39844 18.7908C6.32812 18.8846 6.29297 18.9197 6.29297 18.8963C6.31641 18.8729 6.20508 18.5447 5.95898 17.9119C5.71289 17.2791 5.4668 16.658 5.2207 16.0486C4.97461 15.4393 4.85156 15.1346 4.85156 15.1346C4.6875 14.783 4.68164 14.5311 4.83398 14.3787C4.98633 14.2264 5.23828 14.2205 5.58984 14.3611L7.20703 15.0291Z" fill="white"/>
</g>
<defs>
<clipPath id="clip0_1_469">
<rect width="18" height="18.5" fill="white" transform="matrix(1 0 0 -1 0 19.4102)"/>
</clipPath>
</defs>
</svg>
