<svg width="15" height="16" viewBox="0 0 15 16" fill="none" xmlns="http://www.w3.org/2000/svg">
<g clip-path="url(#clip0_1_426)">
<path d="M1.79215 14.3387H4.20286V11.928H1.79215V14.3387ZM4.73858 14.3387H7.41715V11.928H4.73858V14.3387ZM1.79215 11.3923H4.20286V8.71373H1.79215V11.3923ZM4.73858 11.3923H7.41715V8.71373H4.73858V11.3923ZM1.79215 8.17801H4.20286V5.7673H1.79215V8.17801ZM7.95286 14.3387H10.6314V11.928H7.95286V14.3387ZM4.73858 8.17801H7.41715V5.7673H4.73858V8.17801ZM11.1671 14.3387H13.5779V11.928H11.1671V14.3387ZM7.95286 11.3923H10.6314V8.71373H7.95286V11.3923ZM5.00643 4.16016V1.74944C5.00643 1.6769 4.97993 1.61412 4.92691 1.56111C4.8739 1.50809 4.81112 1.48159 4.73858 1.48159H4.20286C4.13032 1.48159 4.06754 1.50809 4.01452 1.56111C3.96151 1.61412 3.935 1.6769 3.935 1.74944V4.16016C3.935 4.2327 3.96151 4.29548 4.01452 4.34849C4.06754 4.40151 4.13032 4.42801 4.20286 4.42801H4.73858C4.81112 4.42801 4.8739 4.40151 4.92691 4.34849C4.97993 4.29548 5.00643 4.2327 5.00643 4.16016ZM11.1671 11.3923H13.5779V8.71373H11.1671V11.3923ZM7.95286 8.17801H10.6314V5.7673H7.95286V8.17801ZM11.1671 8.17801H13.5779V5.7673H11.1671V8.17801ZM11.435 4.16016V1.74944C11.435 1.6769 11.4085 1.61412 11.3555 1.56111C11.3025 1.50809 11.2397 1.48159 11.1671 1.48159H10.6314C10.5589 1.48159 10.4961 1.50809 10.4431 1.56111C10.3901 1.61412 10.3636 1.6769 10.3636 1.74944V4.16016C10.3636 4.2327 10.3901 4.29548 10.4431 4.34849C10.4961 4.40151 10.5589 4.42801 10.6314 4.42801H11.1671C11.2397 4.42801 11.3025 4.40151 11.3555 4.34849C11.4085 4.29548 11.435 4.2327 11.435 4.16016ZM14.6493 3.62444V14.3387C14.6493 14.6289 14.5433 14.88 14.3312 15.0921C14.1192 15.3041 13.868 15.4102 13.5779 15.4102H1.79215C1.50197 15.4102 1.25085 15.3041 1.0388 15.0921C0.826745 14.88 0.720718 14.6289 0.720718 14.3387V3.62444C0.720718 3.33426 0.826745 3.08315 1.0388 2.87109C1.25085 2.65904 1.50197 2.55301 1.79215 2.55301H2.86358V1.74944C2.86358 1.38114 2.99471 1.06585 3.25699 0.803572C3.51927 0.541295 3.83456 0.410157 4.20286 0.410157H4.73858C5.10688 0.410157 5.42217 0.541295 5.68445 0.803572C5.94672 1.06585 6.07786 1.38114 6.07786 1.74944V2.55301H9.29215V1.74944C9.29215 1.38114 9.42329 1.06585 9.68556 0.803572C9.94784 0.541295 10.2631 0.410157 10.6314 0.410157H11.1671C11.5355 0.410157 11.8507 0.541295 12.113 0.803572C12.3753 1.06585 12.5064 1.38114 12.5064 1.74944V2.55301H13.5779C13.868 2.55301 14.1192 2.65904 14.3312 2.87109C14.5433 3.08315 14.6493 3.33426 14.6493 3.62444Z" fill="#71B100"/>
</g>
<defs>
<clipPath id="clip0_1_426">
<rect width="13.93" height="15" fill="white" transform="matrix(1 0 0 -1 0.720001 15.4102)"/>
</clipPath>
</defs>
</svg>
