<svg width="17" height="18" viewBox="0 0 17 18" fill="none" xmlns="http://www.w3.org/2000/svg">
<g clip-path="url(#clip0_1_135)">
<path d="M3.94003 15.4286H12.94V12.8572H3.94003V15.4286ZM3.94003 9.00001H12.94V5.14287H11.3329C11.065 5.14287 10.8373 5.04912 10.6498 4.86162C10.4623 4.67412 10.3686 4.44644 10.3686 4.17858V2.57144H3.94003V9.00001ZM15.3206 10.0949C15.3206 10.0949 15.3524 10.0631 15.416 9.99945C15.4796 9.93583 15.5115 9.81697 15.5115 9.64287C15.5115 9.46876 15.4478 9.31809 15.3206 9.19086C15.1934 9.06362 15.0427 9.00001 14.8686 9.00001C14.6945 9.00001 14.5438 9.06362 14.4166 9.19086C14.2894 9.31809 14.2257 9.46876 14.2257 9.64287C14.2257 9.81697 14.2894 9.96764 14.4166 10.0949C14.5438 10.2221 14.6945 10.2857 14.8686 10.2857C15.0427 10.2857 15.1934 10.2221 15.3206 10.0949ZM16.7972 9.64287V13.8214C16.7972 13.9085 16.7654 13.9838 16.7017 14.0474C16.6381 14.1111 16.5628 14.1429 16.4757 14.1429H14.2257V15.75C14.2257 16.0179 14.132 16.2455 13.9445 16.433C13.757 16.6205 13.5293 16.7143 13.2615 16.7143H3.6186C3.35074 16.7143 3.12306 16.6205 2.93556 16.433C2.74806 16.2455 2.65431 16.0179 2.65431 15.75V14.1429H0.404314C0.317261 14.1429 0.241926 14.1111 0.17831 14.0474C0.114694 13.9838 0.0828857 13.9085 0.0828857 13.8214V9.64287C0.0828857 9.11385 0.27206 8.66017 0.650408 8.28182C1.02876 7.90347 1.48244 7.71429 2.01146 7.71429H2.65431V2.25001C2.65431 1.98215 2.74806 1.75447 2.93556 1.56697C3.12306 1.37947 3.35074 1.28572 3.6186 1.28572H10.3686C10.6365 1.28572 10.9311 1.35269 11.2525 1.48662C11.574 1.62054 11.8284 1.78126 12.0159 1.96876L13.5427 3.49554C13.7302 3.68304 13.8909 3.93751 14.0248 4.25894C14.1588 4.58037 14.2257 4.87501 14.2257 5.14287V7.71429H14.8686C15.3976 7.71429 15.8513 7.90347 16.2296 8.28182C16.608 8.66017 16.7972 9.11385 16.7972 9.64287Z" fill="white"/>
</g>
<defs>
<clipPath id="clip0_1_135">
<rect width="16.72" height="18" fill="white" transform="matrix(1 0 0 -1 0.0800171 18)"/>
</clipPath>
</defs>
</svg>
