<svg width="16" height="17" viewBox="0 0 16 17" fill="none" xmlns="http://www.w3.org/2000/svg">
<g clip-path="url(#clip0_1_370)">
<path d="M16 6.74923V13.8385C16 14.2314 15.8601 14.5677 15.5804 14.8474C15.3006 15.1272 14.9643 15.2671 14.5714 15.2671H1.42857C1.03571 15.2671 0.699405 15.1272 0.419643 14.8474C0.139881 14.5677 0 14.2314 0 13.8385V6.74923C0.261905 7.0409 0.5625 7.29983 0.901786 7.52602C3.05655 8.9903 4.53571 10.0171 5.33929 10.6064C5.67857 10.8564 5.95387 11.0513 6.16518 11.1912C6.37649 11.3311 6.65774 11.4739 7.00893 11.6198C7.36012 11.7656 7.6875 11.8385 7.99107 11.8385H8H8.00893C8.3125 11.8385 8.63988 11.7656 8.99107 11.6198C9.34226 11.4739 9.62351 11.3311 9.83482 11.1912C10.0461 11.0513 10.3214 10.8564 10.6607 10.6064C11.6726 9.87423 13.1548 8.84745 15.1071 7.52602C15.4464 7.29388 15.744 7.03495 16 6.74923ZM16 4.12423C16 4.59447 15.8542 5.04388 15.5625 5.47245C15.2708 5.90102 14.9077 6.26709 14.4732 6.57066C12.2351 8.12423 10.8423 9.09149 10.2946 9.47245C10.2351 9.51411 10.1086 9.60489 9.91518 9.74477C9.72173 9.88465 9.56101 9.99774 9.43304 10.0841C9.30506 10.1704 9.1503 10.2671 8.96875 10.3742C8.7872 10.4814 8.61607 10.5617 8.45536 10.6153C8.29464 10.6689 8.14583 10.6957 8.00893 10.6957H8H7.99107C7.85417 10.6957 7.70536 10.6689 7.54464 10.6153C7.38393 10.5617 7.2128 10.4814 7.03125 10.3742C6.8497 10.2671 6.69494 10.1704 6.56696 10.0841C6.43899 9.99774 6.27827 9.88465 6.08482 9.74477C5.89137 9.60489 5.76488 9.51411 5.70536 9.47245C5.16369 9.09149 4.38393 8.54834 3.36607 7.84298C2.34821 7.13763 1.7381 6.71352 1.53571 6.57066C1.16667 6.32066 0.818452 5.97691 0.491071 5.53941C0.16369 5.10191 0 4.69566 0 4.32066C0 3.85638 0.123512 3.46947 0.370536 3.15995C0.61756 2.85042 0.970238 2.69566 1.42857 2.69566H14.5714C14.9583 2.69566 15.2932 2.83554 15.5759 3.1153C15.8586 3.39507 16 3.73138 16 4.12423Z" fill="#71B100"/>
</g>
<defs>
<clipPath id="clip0_1_370">
<rect width="16" height="16" fill="white" transform="matrix(1 0 0 -1 0 16.4102)"/>
</clipPath>
</defs>
</svg>
