<svg width="15" height="18" viewBox="0 0 15 18" fill="none" xmlns="http://www.w3.org/2000/svg">
<g clip-path="url(#clip0_1_131)">
<path d="M14.5064 7.39287V9.32145C14.5064 9.5893 14.4127 9.81698 14.2252 10.0045C14.0377 10.192 13.81 10.2857 13.5421 10.2857H9.36357V14.4643C9.36357 14.7322 9.26982 14.9598 9.08232 15.1473C8.89482 15.3348 8.66714 15.4286 8.39929 15.4286H6.47071C6.20286 15.4286 5.97518 15.3348 5.78768 15.1473C5.60018 14.9598 5.50643 14.7322 5.50643 14.4643V10.2857H1.32786C1.06 10.2857 0.832321 10.192 0.644821 10.0045C0.457321 9.81698 0.363571 9.5893 0.363571 9.32145V7.39287C0.363571 7.12502 0.457321 6.89734 0.644821 6.70984C0.832321 6.52234 1.06 6.42859 1.32786 6.42859H5.50643V2.25002C5.50643 1.98216 5.60018 1.75448 5.78768 1.56698C5.97518 1.37948 6.20286 1.28573 6.47071 1.28573H8.39929C8.66714 1.28573 8.89482 1.37948 9.08232 1.56698C9.26982 1.75448 9.36357 1.98216 9.36357 2.25002V6.42859H13.5421C13.81 6.42859 14.0377 6.52234 14.2252 6.70984C14.4127 6.89734 14.5064 7.12502 14.5064 7.39287Z" fill="white"/>
</g>
<defs>
<clipPath id="clip0_1_131">
<rect width="14.15" height="18" fill="white" transform="matrix(1 0 0 -1 0.360001 18)"/>
</clipPath>
</defs>
</svg>
