<svg width="16" height="17" viewBox="0 0 16 17" fill="none" xmlns="http://www.w3.org/2000/svg">
<g clip-path="url(#clip0_1_340)">
<path d="M15.0357 4.55308C14.6369 5.13642 14.1548 5.63344 13.5893 6.04415C13.5952 6.12749 13.5982 6.25249 13.5982 6.41915C13.5982 7.19296 13.4851 7.96529 13.2589 8.73612C13.0327 9.50695 12.689 10.2465 12.2277 10.9549C11.7664 11.6632 11.2173 12.2897 10.5804 12.8343C9.94346 13.379 9.1756 13.8135 8.27679 14.1379C7.37799 14.4623 6.41668 14.6245 5.39287 14.6245C3.77977 14.6245 2.30358 14.193 0.964294 13.3299C1.17263 13.3537 1.40477 13.3656 1.66072 13.3656C3.00001 13.3656 4.19346 12.9549 5.24108 12.1334C4.61608 12.1215 4.05656 11.9296 3.56251 11.5575C3.06846 11.1855 2.72918 10.7108 2.54465 10.1334C2.74108 10.1632 2.92263 10.1781 3.08929 10.1781C3.34525 10.1781 3.59822 10.1453 3.84822 10.0799C3.18156 9.94296 2.62947 9.61112 2.19197 9.08433C1.75447 8.55755 1.53572 7.94594 1.53572 7.24951V7.2138C1.94048 7.43999 2.37501 7.56201 2.83929 7.57987C2.44644 7.31796 2.13394 6.9757 1.90179 6.55308C1.66965 6.13046 1.55358 5.67213 1.55358 5.17808C1.55358 4.65427 1.68453 4.16915 1.94644 3.72273C2.66668 4.60963 3.54316 5.31945 4.5759 5.85219C5.60864 6.38493 6.71429 6.68106 7.89287 6.74058C7.84525 6.51439 7.82144 6.29415 7.82144 6.07987C7.82144 5.28225 8.10269 4.60219 8.66519 4.03969C9.22769 3.47719 9.90775 3.19594 10.7054 3.19594C11.5387 3.19594 12.2411 3.49951 12.8125 4.10665C13.4613 3.98165 14.0714 3.74951 14.6429 3.41023C14.4226 4.09475 14 4.62451 13.375 4.99951C13.9286 4.93999 14.4822 4.79118 15.0357 4.55308Z" fill="white"/>
</g>
<defs>
<clipPath id="clip0_1_340">
<rect width="14.86" height="16" fill="white" transform="matrix(1 0 0 -1 0.570007 16.9102)"/>
</clipPath>
</defs>
</svg>
