<svg width="12" height="32" viewBox="0 0 12 32" fill="none" xmlns="http://www.w3.org/2000/svg">
<g clip-path="url(#clip0_1_156)">
<path d="M10.5843 16.5193C10.6996 16.6346 10.7573 16.7673 10.7573 16.9172C10.7573 17.0671 10.6996 17.1997 10.5843 17.3151L2.52288 25.3764C2.40756 25.4918 2.27493 25.5494 2.125 25.5494C1.97508 25.5494 1.84245 25.4918 1.72712 25.3764L0.86217 24.5115C0.746842 24.3962 0.689178 24.2635 0.689178 24.1136C0.689178 23.9637 0.746842 23.8311 0.86217 23.7157L7.66072 16.9172L0.86217 10.1186C0.746842 10.0033 0.689178 9.87068 0.689178 9.72076C0.689178 9.57083 0.746842 9.4382 0.86217 9.32288L1.72712 8.45792C1.84245 8.34259 1.97508 8.28493 2.125 8.28493C2.27493 8.28493 2.40756 8.34259 2.52288 8.45792L10.5843 16.5193Z" fill="white"/>
</g>
<defs>
<clipPath id="clip0_1_156">
<rect width="11.08" height="31" fill="white" transform="matrix(1 0 0 -1 0.459991 31.3101)"/>
</clipPath>
</defs>
</svg>
